{
	"asset":{
		"generator":"Khronos glTF Blender I/O v3.5.30",
		"version":"2.0"
	},
	"extensionsUsed":[
		"KHR_materials_unlit"
	],
	"scene":0,
	"scenes":[
		{
			"name":"Scene",
			"nodes":[
				9
			]
		}
	],
	"nodes":[
		{
			"mesh":0,
			"name":"Model_material0_0",
			"rotation":[
				-0.07434330880641937,
				0.11971563845872879,
				-0.5222885608673096,
				0.8410446643829346
			]
		},
		{
			"mesh":1,
			"name":"Model_material0_0.001",
			"rotation":[
				-0.07434330880641937,
				0.11971563845872879,
				-0.5222885608673096,
				0.8410446643829346
			]
		},
		{
			"mesh":2,
			"name":"Model_material0_0.002",
			"rotation":[
				-0.07434330880641937,
				0.11971563845872879,
				-0.5222885608673096,
				0.8410446643829346
			]
		},
		{
			"mesh":3,
			"name":"Model_material0_0.003",
			"rotation":[
				-0.07434330880641937,
				0.11971563845872879,
				-0.5222885608673096,
				0.8410446643829346
			]
		},
		{
			"mesh":4,
			"name":"Model_material0_0.004",
			"rotation":[
				-0.07434330880641937,
				0.11971563845872879,
				-0.5222885608673096,
				0.8410446643829346
			]
		},
		{
			"mesh":5,
			"name":"Model_material0_0.005",
			"rotation":[
				-0.07434330880641937,
				0.11971563845872879,
				-0.5222885608673096,
				0.8410446643829346
			]
		},
		{
			"children":[
				0,
				1,
				2,
				3,
				4,
				5
			],
			"name":"Model"
		},
		{
			"children":[
				6
			],
			"name":"RootNode",
			"rotation":[
				0.7347045540809631,
				0.6459168791770935,
				0.1435278058052063,
				0.1496678590774536
			]
		},
		{
			"children":[
				7
			],
			"name":"model.fbx",
			"rotation":[
				0.9995203018188477,
				0.02789563313126564,
				-0.00037554552545771003,
				0.013456196524202824
			]
		},
		{
			"children":[
				8
			],
			"name":"Sketchfab_model",
			"rotation":[
				-0.70710688829422,
				0,
				0,
				0.7071066498756409
			]
		}
	],
	"materials":[
		{
			"doubleSided":true,
			"extensions":{
				"KHR_materials_unlit":{}
			},
			"name":"material0",
			"pbrMetallicRoughness":{
				"baseColorTexture":{
					"index":0,
					"texCoord":0
				},
				"metallicFactor":0,
				"roughnessFactor":0.9
			}
		}
	],
	"meshes":[
		{
			"name":"Model_material0_0",
			"primitives":[
				{
					"attributes":{
						"POSITION":0,
						"TEXCOORD_0":1,
						"NORMAL":2
					},
					"indices":3,
					"material":0
				}
			]
		},
		{
			"name":"Model_material0_0.001",
			"primitives":[
				{
					"attributes":{
						"POSITION":4,
						"TEXCOORD_0":5,
						"NORMAL":6
					},
					"indices":7,
					"material":0
				}
			]
		},
		{
			"name":"Model_material0_0.002",
			"primitives":[
				{
					"attributes":{
						"POSITION":8,
						"TEXCOORD_0":9,
						"NORMAL":10
					},
					"indices":11,
					"material":0
				}
			]
		},
		{
			"name":"Model_material0_0.003",
			"primitives":[
				{
					"attributes":{
						"POSITION":12,
						"TEXCOORD_0":13,
						"NORMAL":14
					},
					"indices":15,
					"material":0
				}
			]
		},
		{
			"name":"Model_material0_0.004",
			"primitives":[
				{
					"attributes":{
						"POSITION":16,
						"TEXCOORD_0":17,
						"NORMAL":18
					},
					"indices":19,
					"material":0
				}
			]
		},
		{
			"name":"Model_material0_0.005",
			"primitives":[
				{
					"attributes":{
						"POSITION":20,
						"TEXCOORD_0":21,
						"NORMAL":22
					},
					"indices":23,
					"material":0
				}
			]
		}
	],
	"textures":[
		{
			"sampler":0,
			"source":0
		}
	],
	"images":[
		{
			"mimeType":"image/jpeg",
			"name":"material0_baseColor",
			"uri":"textures/material0_baseColor.jpg"
		}
	],
	"accessors":[
		{
			"bufferView":0,
			"componentType":5126,
			"count":65575,
			"max":[
				0.6280481815338135,
				0.5764960646629333,
				0.19541439414024353
			],
			"min":[
				-0.10322195291519165,
				-0.08969302475452423,
				-0.15694700181484222
			],
			"type":"VEC3"
		},
		{
			"bufferView":1,
			"componentType":5126,
			"count":65575,
			"type":"VEC2"
		},
		{
			"bufferView":2,
			"componentType":5126,
			"count":65575,
			"type":"VEC3"
		},
		{
			"bufferView":3,
			"componentType":5125,
			"count":359388,
			"type":"SCALAR"
		},
		{
			"bufferView":4,
			"componentType":5126,
			"count":65584,
			"max":[
				0.6454201340675354,
				0.5430917143821716,
				0.1705951988697052
			],
			"min":[
				-0.5268412232398987,
				-0.6499793529510498,
				-0.16406479477882385
			],
			"type":"VEC3"
		},
		{
			"bufferView":5,
			"componentType":5126,
			"count":65584,
			"type":"VEC2"
		},
		{
			"bufferView":6,
			"componentType":5126,
			"count":65584,
			"type":"VEC3"
		},
		{
			"bufferView":7,
			"componentType":5125,
			"count":345369,
			"type":"SCALAR"
		},
		{
			"bufferView":8,
			"componentType":5126,
			"count":65592,
			"max":[
				0.6473903059959412,
				0.7461844682693481,
				0.2941376566886902
			],
			"min":[
				-0.4888051748275757,
				-0.596947431564331,
				-0.17139297723770142
			],
			"type":"VEC3"
		},
		{
			"bufferView":9,
			"componentType":5126,
			"count":65592,
			"type":"VEC2"
		},
		{
			"bufferView":10,
			"componentType":5126,
			"count":65592,
			"type":"VEC3"
		},
		{
			"bufferView":11,
			"componentType":5125,
			"count":340080,
			"type":"SCALAR"
		},
		{
			"bufferView":12,
			"componentType":5126,
			"count":65596,
			"max":[
				0.4835348427295685,
				0.7459412217140198,
				0.31763267517089844
			],
			"min":[
				-0.6224332451820374,
				-0.7115910649299622,
				-0.306632936000824
			],
			"type":"VEC3"
		},
		{
			"bufferView":13,
			"componentType":5126,
			"count":65596,
			"type":"VEC2"
		},
		{
			"bufferView":14,
			"componentType":5126,
			"count":65596,
			"type":"VEC3"
		},
		{
			"bufferView":15,
			"componentType":5125,
			"count":324513,
			"type":"SCALAR"
		},
		{
			"bufferView":16,
			"componentType":5126,
			"count":65593,
			"max":[
				0.3158021867275238,
				0.08206509053707123,
				0.07176405936479568
			],
			"min":[
				-0.4517142176628113,
				-0.7013501524925232,
				-0.297903835773468
			],
			"type":"VEC3"
		},
		{
			"bufferView":17,
			"componentType":5126,
			"count":65593,
			"type":"VEC2"
		},
		{
			"bufferView":18,
			"componentType":5126,
			"count":65593,
			"type":"VEC3"
		},
		{
			"bufferView":19,
			"componentType":5125,
			"count":331452,
			"type":"SCALAR"
		},
		{
			"bufferView":20,
			"componentType":5126,
			"count":25953,
			"max":[
				0.3967258036136627,
				0.49429482221603394,
				0.12384714186191559
			],
			"min":[
				-0.2216576486825943,
				-0.30651089549064636,
				-0.22729982435703278
			],
			"type":"VEC3"
		},
		{
			"bufferView":21,
			"componentType":5126,
			"count":25953,
			"type":"VEC2"
		},
		{
			"bufferView":22,
			"componentType":5126,
			"count":25953,
			"type":"VEC3"
		},
		{
			"bufferView":23,
			"componentType":5123,
			"count":105108,
			"type":"SCALAR"
		}
	],
	"bufferViews":[
		{
			"buffer":0,
			"byteLength":786900,
			"byteOffset":0,
			"target":34962
		},
		{
			"buffer":0,
			"byteLength":524600,
			"byteOffset":786900,
			"target":34962
		},
		{
			"buffer":0,
			"byteLength":786900,
			"byteOffset":1311500,
			"target":34962
		},
		{
			"buffer":0,
			"byteLength":1437552,
			"byteOffset":2098400,
			"target":34963
		},
		{
			"buffer":0,
			"byteLength":787008,
			"byteOffset":3535952,
			"target":34962
		},
		{
			"buffer":0,
			"byteLength":524672,
			"byteOffset":4322960,
			"target":34962
		},
		{
			"buffer":0,
			"byteLength":787008,
			"byteOffset":4847632,
			"target":34962
		},
		{
			"buffer":0,
			"byteLength":1381476,
			"byteOffset":5634640,
			"target":34963
		},
		{
			"buffer":0,
			"byteLength":787104,
			"byteOffset":7016116,
			"target":34962
		},
		{
			"buffer":0,
			"byteLength":524736,
			"byteOffset":7803220,
			"target":34962
		},
		{
			"buffer":0,
			"byteLength":787104,
			"byteOffset":8327956,
			"target":34962
		},
		{
			"buffer":0,
			"byteLength":1360320,
			"byteOffset":9115060,
			"target":34963
		},
		{
			"buffer":0,
			"byteLength":787152,
			"byteOffset":10475380,
			"target":34962
		},
		{
			"buffer":0,
			"byteLength":524768,
			"byteOffset":11262532,
			"target":34962
		},
		{
			"buffer":0,
			"byteLength":787152,
			"byteOffset":11787300,
			"target":34962
		},
		{
			"buffer":0,
			"byteLength":1298052,
			"byteOffset":12574452,
			"target":34963
		},
		{
			"buffer":0,
			"byteLength":787116,
			"byteOffset":13872504,
			"target":34962
		},
		{
			"buffer":0,
			"byteLength":524744,
			"byteOffset":14659620,
			"target":34962
		},
		{
			"buffer":0,
			"byteLength":787116,
			"byteOffset":15184364,
			"target":34962
		},
		{
			"buffer":0,
			"byteLength":1325808,
			"byteOffset":15971480,
			"target":34963
		},
		{
			"buffer":0,
			"byteLength":311436,
			"byteOffset":17297288,
			"target":34962
		},
		{
			"buffer":0,
			"byteLength":207624,
			"byteOffset":17608724,
			"target":34962
		},
		{
			"buffer":0,
			"byteLength":311436,
			"byteOffset":17816348,
			"target":34962
		},
		{
			"buffer":0,
			"byteLength":210216,
			"byteOffset":18127784,
			"target":34963
		}
	],
	"samplers":[
		{
			"magFilter":9729,
			"minFilter":9987
		}
	],
	"buffers":[
		{
			"byteLength":18338000,
			"uri":"scene.bin"
		}
	]
}
